{"title":"Fifty Shades Of Grey 2015 UNCENSORED 720p HDRip x264 Pimp4003","uid":11739808,"size":2230117444,"categoryP":"video","categoryS":"hd___movies","magnet":"?xt=urn:btih:1e12a1fb6af20a7d1cb949e5aa318bcdb98bc1d5&amp;dn=Fifty+Shades+Of+Grey+2015+UNCENSORED+720p+HDRip+x264+Pimp4003&amp;tr=udp%3A%2F%2Ftracker.openbittorrent.com%3A80&amp;tr=udp%3A%2F%2Fopen.demonii.com%3A1337&amp;tr=udp%3A%2F%2Ftracker.coppersurfer.tk%3A6969&amp;tr=udp%3A%2F%2Fexodus.desync.com%3A6969","seeders":148,"leechers":7,"uploader":"shawnmurthy","files":1,"time":1425740135,"description":"YES UNCENSORED...THAT MEANS ALL SEX SCENES ARE THERE BUT HAD SUBS....ENJOY...PIMP4003\n\nSCREENSHOTS GO HERE...pimp4003DOTnet/torrents.php?id=1e12a1fb6af20a7d1cb949e5aa318bcdb98bc1d5\n\nI am looking for: Pre-Retail Supplier Unreleased DVD/BluRay/Web-Dls/R5/CAM/TS If you have something to offer, please contact ME: &lt;a class=&quot;__cf_email__&quot; href=&quot;/cdn-cgi/l/email-protection&quot; data-cfemail=&quot;aadac3c7da9e9a9a99eac2dfd9c2c7cbc3c684c9c5c784&quot;&gt;[email&amp;#160;protected]&lt;/a&gt;&lt;script cf-hash='f9e31' type=&quot;text/javascript&quot;&gt;\n/* &lt;![CDATA[ */!function(){try{var t=&quot;currentScript&quot;in document?document.currentScript:function(){for(var t=document.getElementsByTagName(&quot;script&quot;),e=t.length;e--;)if(t[e].getAttribute(&quot;cf-hash&quot;))return t[e]}();if(t&amp;&amp;t.previousSibling){var e,r,n,i,c=t.previousSibling,a=c.getAttribute(&quot;data-cfemail&quot;);if(a){for(e=&quot;&quot;,r=parseInt(a.substr(0,2),16),n=2;a.length-n;n+=2)i=parseInt(a.substr(n,2),16)^r,e+=String.fromCharCode(i);e=document.createTextNode(e),c.parentNode.replaceChild(e,c)}}}catch(u){}}();/* ]]&gt; */&lt;/script&gt; WE CAN WORK OUT A GREAT DEAL THAT WORKS OUT FOR EVERY PARTY\n &lt;a href=&quot;\nhttp://i.imgur.com/J3ny9bJ.jpg&quot; rel=&quot;nofollow&quot; target=&quot;_NEW&quot;&gt;\nhttp://i.imgur.com/J3ny9bJ.jpg&lt;/a&gt;\n &lt;a href=&quot;\nhttp://i.imgur.com/SpsuXOR.png&quot; rel=&quot;nofollow&quot; target=&quot;_NEW&quot;&gt;\nhttp://i.imgur.com/SpsuXOR.png&lt;/a&gt;\n\nPIMP THE ONE AND ONLY PIMPSTER.....PRESENTS\n\nfacebookDOTcom/OfficialPimp4003\n &lt;a href=&quot;\nhttp://i.imgur.com/i8nqETE.png&quot; rel=&quot;nofollow&quot; target=&quot;_NEW&quot;&gt;\nhttp://i.imgur.com/i8nqETE.png&lt;/a&gt;\n\nFifty Shades Of Grey 2015 UNCENSORED 720p HDRip x264 Pimp4003\n &lt;a href=&quot;\nhttp://www.imdb.com/title/tt2322441/&quot; rel=&quot;nofollow&quot; target=&quot;_NEW&quot;&gt;\nhttp://www.imdb.com/title/tt2322441/&lt;/a&gt;\n\nLiterature student Anastasia Steele's life changes forever when she meets handsome, yet tormented, billionaire Christian Grey.\n\nDirector: Sam Taylor-Johnson\n\nWriters: Kelly Marcel (screenplay), E.L. James (novel)\n\nStars: Dakota Johnson, Jamie Dornan, Jennifer Ehle |See full cast and crew Â»\n\nVideo\n\nID : 1\n\nFormat : MPEG-4 Visual\n\nFormat profile : Simple@L3\n\nFormat settings, BVOP : No\n\nFormat settings, QPel : No\n\nFormat settings, GMC : No warppoints\n\nFormat settings, Matrix : Default (H.263)\n\nCodec ID : 20\n\nDuration : 2h 5mn\n\nBit rate : 2 235 Kbps\n\nWidth : 1 280 pixels\n\nHeight : 536 pixels\n\nDisplay aspect ratio : 2.40:1\n\nFrame rate mode : Variable\n\nFrame rate : 59.940 fps\n\nMinimum frame rate : 59.916 fps\n\nMaximum frame rate : 60.157 fps\n\nColor space : YUV\n\nChroma subsampling : 4:2:0\n\nBit depth : 8 bits\n\nScan type : Progressive\n\nCompression mode : Lossy\n\nBits/(Pixel*Frame) : 0.054\n\nStream size : 1.96 GiB (94%)\n\nWriting library : ZJMedia MPEG Encoder\n\nAudio\n\nID : 2\n\nFormat : AAC\n\nFormat/Info : Advanced Audio Codec\n\nFormat profile : LC\n\nCodec ID : 40\n\nDuration : 2h 5mn\n\nBit rate mode : Variable\n\nBit rate : 128 Kbps\n\nChannel(s) : 2 channels\n\nChannel positions : Front: L R\n\nSampling rate : 48.0 KHz\n\nCompression mode : Lossy\n\nStream size : 115 MiB (5%)","torrent":{"xt":"urn:btih:1e12a1fb6af20a7d1cb949e5aa318bcdb98bc1d5","amp;dn":"Fifty+Shades+Of+Grey+2015+UNCENSORED+720p+HDRip+x264+Pimp4003","amp;tr":["udp%3A%2F%2Ftracker.openbittorrent.com%3A80","udp%3A%2F%2Fopen.demonii.com%3A1337","udp%3A%2F%2Ftracker.coppersurfer.tk%3A6969","udp%3A%2F%2Fexodus.desync.com%3A6969"],"infoHash":"1e12a1fb6af20a7d1cb949e5aa318bcdb98bc1d5","infoHashBuffer":{"type":"Buffer","data":[30,18,161,251,106,242,10,125,28,185,73,229,170,49,139,205,185,139,193,213]},"announce":[],"urlList":[]}}